<svg width="20" height="16" viewBox="0 0 20 16" fill="none" xmlns="http://www.w3.org/2000/svg">
<path d="M11.4486 1.54151C11.9007 1.06566 12.4459 0.683996 13.0517 0.419282C13.6575 0.154568 14.3114 0.0122277 14.9745 0.000753756C15.6376 -0.0107202 16.2962 0.108906 16.9111 0.352497C17.526 0.596089 18.0846 0.958654 18.5536 1.41856C19.0225 1.87847 19.3922 2.42631 19.6406 3.02938C19.889 3.63246 20.0109 4.27841 19.9992 4.92872C19.9875 5.57903 19.8424 6.22037 19.5725 6.81448C19.3026 7.40858 18.9134 7.94328 18.4282 8.38668L11.1688 15.5225C11.0157 15.6738 10.8337 15.7939 10.6331 15.8758C10.4325 15.9578 10.2173 16 10 16C9.78269 16 9.56753 15.9578 9.36693 15.8758C9.16634 15.7939 8.98427 15.6738 8.83124 15.5225L1.57178 8.38668C1.08659 7.94328 0.69743 7.40858 0.427516 6.81448C0.157603 6.22037 0.0124679 5.57903 0.000768555 4.92872C-0.0109308 4.27841 0.111046 3.63246 0.359421 3.02938C0.607797 2.42631 0.977483 1.87847 1.44643 1.41856C1.91537 0.958654 2.47396 0.596089 3.08888 0.352497C3.7038 0.108906 4.36244 -0.0107202 5.02553 0.000753756C5.68861 0.0122277 6.34254 0.154568 6.94832 0.419282C7.55409 0.683996 8.09929 1.06566 8.5514 1.54151L10 2.96221L11.4486 1.54151Z" fill="white"/>
</svg>
