<?xml version="1.0" encoding="UTF-8" standalone="no"?>
<!-- Created with Inkscape (http://www.inkscape.org/) -->

<svg
   width="111.438mm"
   height="79.545235mm"
   viewBox="0 0 111.438 79.545235"
   version="1.1"
   id="svg1"
   xml:space="preserve"
   inkscape:version="1.3.2 (091e20e, 2023-11-25)"
   sodipodi:docname="Logo weiß.svg"
   xmlns:inkscape="http://www.inkscape.org/namespaces/inkscape"
   xmlns:sodipodi="http://sodipodi.sourceforge.net/DTD/sodipodi-0.dtd"
   xmlns="http://www.w3.org/2000/svg"
   xmlns:svg="http://www.w3.org/2000/svg"><sodipodi:namedview
     id="namedview1"
     pagecolor="#ffffff"
     bordercolor="#000000"
     borderopacity="0.25"
     inkscape:showpageshadow="2"
     inkscape:pageopacity="0.0"
     inkscape:pagecheckerboard="0"
     inkscape:deskcolor="#d1d1d1"
     inkscape:document-units="mm"
     inkscape:zoom="1.6365999"
     inkscape:cx="188.50056"
     inkscape:cy="120.98253"
     inkscape:window-width="1600"
     inkscape:window-height="875"
     inkscape:window-x="0"
     inkscape:window-y="25"
     inkscape:window-maximized="0"
     inkscape:current-layer="svg1" /><defs
     id="defs1" /><path
     style="display:inline;fill:#926c1d;stroke-width:0.817036"
     d="m 108.46419,37.739417 c -0.1559,-0.004 -0.56038,-0.0452 -0.89885,-0.091 -0.33847,-0.0458 -0.83714,-0.10779 -1.10816,-0.13772 -0.78326,-0.0865 -2.35358,-0.37956 -3.00732,-0.56122 -1.66617,-0.463 -4.593676,-1.49703 -5.683116,-2.00736 -0.69723,-0.3266 -0.69723,-0.3266 -0.96532,0.10487 -2.99366,4.81807 -2.98922,4.81203 -3.35829,4.56363 -0.38753,-0.26082 -0.14449,-0.73773 1.81821,-4.77588 0.29895,-0.61506 0.52578,-1.12412 0.83191,-1.69359 0.13305,-0.26392 0.46295,-0.89933 0.73312,-1.412 0.64833,-1.23028 1.66748,-3.26812 2.69039,-5.37957 0.735036,-1.51721 1.266696,-2.67063 2.820816,-6.11957 1.33286,-2.86885 2.65557,-5.74083 3.63748,-8.74615 1.76725,-5.3255102 1.07135,-7.9223902 -2.21028,-8.2481102 -2.6071,-0.25877 -5.170516,2.45776 -6.039156,6.39987 -0.3245,1.4726702 -0.64097,4.5136402 -0.50184,4.6640202 -0.10478,0.069 -0.94715,-0.61445 -1.08678,-0.84029 -0.20761,-0.3386 0.49004,0.0598 0.30519,-0.18393 -0.6981,-0.92048 -1.78734,-0.81691 -0.88907,-3.9300002 1.48261,-5.1382 4.16313,-8.37381003 8.027956,-8.31845 5.34317,0.0765 6.92471,4.72285 4.21781,12.3911802 -2.36403,6.69707 -6.30017,13.85949 -9.676996,19.44795 -0.26525,0.439 4.997296,2.37169 8.138876,2.98904 0.72906,0.19357 4.4031,0.26306 3.5737,1.58405 -0.14577,0.15131 -0.88607,0.31352 -1.37055,0.30033 z m -16.508616,-5.98257 c -0.10549,-0.0912 -0.10356,-0.094 0.0206,-0.0307 0.0754,0.0385 0.13927,0.0815 0.14202,0.0956 0.0109,0.0559 -0.0518,0.0308 -0.16265,-0.0649 z m 5.35682,-10.27622 c -0.47987,-2.5e-4 -0.96273,-0.46366 -1.30021,-1.24788 -0.41646,-0.96773 -1.28117,-5.96549 -1.04083,-6.01246 0.19327,-0.0378 1.52171,1.81973 2.11484,3.26667 0.7649,1.86596 0.67121,1.91056 1.07042,2.87294 0.43766,1.05505 -0.22346,1.12105 -0.84422,1.12073 z"
     id="herz-rechts"
     sodipodi:nodetypes="csssssssssssssssssssssssccsssssssssss"
     inkscape:label="Herz-rechts" /><path
     style="display:inline;fill:#ffffff;stroke-width:0.817036;fill-opacity:1"
     d="m 94.626074,33.325517 c -11.6805,-6.40531 -18.40995,-16.62305 -16.12,-24.4759902 1.77378,-6.08287 9.72029,-5.30284 16.09442,1.5798402 2.12926,1.71377 5.631636,8.60682 4.21833,10.44296 -0.22982,0.29858 -0.46523,0.45347 -0.78384,0.51574 -0.3398,-1.1788 -0.78091,-2.59117 -1.33184,-3.79256 -2.25744,-4.89736 -5.86276,-7.48829 -7.38204,-8.5660402 -6.4212,-4.31641 -10.3962,-1.52487 -8.69178,6.1040202 1.27995,5.72897 8.10911,13.25065 15.40444,16.96653 0.67324,0.25216 0.29913,0.55385 0.0638,1.04357 -0.3457,0.71945 -0.39849,0.77035 -1.4715,0.18193 z"
     id="herz-links"
     sodipodi:nodetypes="sssssssssss"
     inkscape:label="Herz-links" /><path
     style="fill:#ffffff;fill-opacity:1"
     d="m 3.0618984,48.224745 c -0.54946,-0.292045 -0.720096,-0.551914 -0.716155,-1.090666 0.0029,-0.39093 0.110596,-0.74713 0.580526,-1.919346 0.317358,-0.791633 0.81893,-1.953683 1.114604,-2.582333 0.594853,-1.264751 0.743097,-1.780124 0.660543,-2.296392 -0.164062,-1.025986 -1.51326,-1.997811 -3.042821,-2.191741 -0.78617904,-0.09968 -1.03127601,-0.211205 -1.28170301,-0.583221 -0.23908704,-0.35517 -0.26074204,-0.977113 -0.04361,-1.252536 0.148462,-0.188319 0.85477001,-0.57921 3.26246801,-1.805543 1.539739,-0.784248 2.517345,-1.227803 4.419149,-2.005035 1.6930317,-0.691911 1.8846407,-0.790621 2.2127826,-1.139946 0.699663,-0.744829 2.243371,-3.915228 7.125279,-14.633585 2.490721,-5.468445 3.07907,-6.7401312 4.524281,-9.7790002 0.487211,-1.024467 1.205438,-2.567517 1.596062,-3.429 0.789516,-1.741205 1.249997,-2.4879311 1.674162,-2.71486009 0.556824,-0.297903 0.855821,0.03341 0.857851,0.95057909 0.0019,0.856561 -0.190377,1.687316 -0.70276,3.036423 -1.747062,4.60003 -6.861564,15.9969362 -10.191254,22.7096912 -0.756466,1.525058 -1.35332,2.772833 -1.326341,2.772833 0.02698,0 0.816201,-0.232089 1.753827,-0.515754 2.28777,-0.692129 4.973501,-1.365227 6.573109,-1.647352 0.933409,-0.164627 1.364249,-0.278261 1.492131,-0.393548 0.09889,-0.08915 0.286822,-0.417146 0.417628,-0.728884 0.413778,-0.986116 1.843292,-3.908954 2.61887,-5.354642 1.520405,-2.834054 3.055889,-5.25971 4.901346,-7.74282 1.490542,-2.005564 1.480232,-1.993379 1.799657,-2.126844 0.376495,-0.157309 0.649858,-0.07881 0.961455,0.276073 0.40688,0.463411 0.316955,0.857181 -0.383988,1.681438 -0.39102,0.459811 -2.793115,4.434404 -4.400566,7.281333 -1.057619,1.873133 -3.173199,6.009059 -3.173199,6.203556 0,0.09457 0.324992,0.102457 1.883833,0.0457 2.951726,-0.107471 4.871758,-0.0782 5.241174,0.0799 0.560317,0.239798 0.506648,0.684733 -0.121672,1.008701 -0.325664,0.167916 -0.542809,0.190044 -2.473669,0.252079 -4.349152,0.139728 -5.197542,0.306952 -5.666616,1.116935 -0.583649,1.007828 -1.920053,4.478448 -3.892733,10.109362 -2.167086,6.185838 -2.41954,6.811672 -2.91124,7.216973 -0.562887,0.463979 -0.949077,0.244684 -0.949077,-0.538925 0,-0.601749 0.510667,-2.807934 1.227091,-5.301279 0.699131,-2.433161 1.08497,-3.549019 2.654749,-7.677612 0.605187,-1.59167 1.177072,-3.165092 1.270856,-3.496493 0.155563,-0.549707 0.157996,-0.598871 0.02774,-0.560613 -0.07852,0.02306 -0.390423,0.08504 -0.693106,0.13772 -1.787112,0.311046 -4.376307,1.001397 -7.173564,1.912668 -2.081182,0.677994 -2.188107,0.75557 -3.048286,2.211592 -0.323541,0.547656 -1.19924,2.027909 -1.9459979,3.28945 -1.7591587,2.971849 -3.0128367,5.210421 -3.2370837,5.780148 -0.09825,0.249623 -0.370329,1.106872 -0.604613,1.905 -0.491973,1.675981 -0.695731,2.160027 -1.216415,2.8897 -0.551537,0.77291 -1.045413,0.963965 -1.654706,0.640119 z m 4.166378,-11.413914 c 0.778091,-1.384954 1.380095,-2.530155 1.337786,-2.544891 -0.121743,-0.0424 -1.325842,0.313658 -2.159831,0.638679 -0.775928,0.302394 -2.524253,1.148688 -3.507179,1.697684 -0.51474,0.287499 -0.532865,0.30798 -0.338667,0.382686 0.112849,0.04341 0.52903,0.233068 0.924846,0.421459 0.609494,0.290092 0.836321,0.46241 1.481667,1.125607 0.4191,0.430693 0.78105,0.786182 0.804333,0.789976 0.02328,0.0038 0.678953,-1.126246 1.457045,-2.5112 z m 64.7946226,0.121098 c -0.84291,-0.330492 -1.39939,-0.913163 -1.65143,-1.729191 -0.229745,-0.743815 -0.229336,-2.110874 9.7e-4,-3.24099 0.23181,-1.137498 0.56896,-2.05737 1.40568,-3.83523 0.39075,-0.830251 0.71045,-1.57865 0.71045,-1.663108 0,-0.2186 -0.20993,-0.270695 -0.57875,-0.143623 -0.78317,0.269824 -1.49538,0.908504 -5.131569,4.6018 -3.149398,3.198864 -3.30941,3.327688 -3.995108,3.216415 -0.449112,-0.07288 -0.932377,-0.427812 -1.142023,-0.838754 -0.169897,-0.333025 -0.179054,-0.439015 -0.129825,-1.502739 0.02913,-0.629443 0.126598,-1.487252 0.216595,-1.906242 0.09,-0.418989 0.157003,-0.768426 0.148903,-0.776526 -0.0081,-0.0081 -0.45269,0.328059 -0.987978,0.74702 -3.154346,2.468855 -6.166327,4.075603 -9.02546,4.814652 -2.148589,0.555382 -3.379608,0.364719 -4.573047,-0.708286 -0.630186,-0.566591 -0.984541,-1.285591 -1.031249,-2.092442 -0.0428,-0.739337 0.08829,-1.289379 0.541767,-2.273205 0.159016,-0.344989 0.277507,-0.638867 0.263312,-0.653061 -0.0142,-0.0142 -0.214531,0.03284 -0.445191,0.104512 -0.661777,0.205645 -1.989907,0.24552 -2.838981,0.08524 -0.399445,-0.07541 -0.897142,-0.1371 -1.105993,-0.1371 -0.465066,0 -0.689811,0.20953 -1.089773,1.016 -0.398391,0.803298 -0.909293,1.481924 -1.662072,2.207711 -1.157268,1.115774 -2.168402,1.688826 -2.973305,1.685096 -0.74126,-0.0034 -1.529839,-0.510348 -1.906927,-1.225807 -0.253851,-0.481638 -0.299971,-1.795133 -0.101886,-2.901653 0.393181,-2.196332 1.292484,-3.809602 3.156373,-5.662254 1.185016,-1.177872 1.478461,-1.343268 2.279428,-1.284759 1.544945,0.112854 2.488348,1.526678 2.362804,3.540999 -0.02757,0.442384 -0.07359,0.924772 -0.102262,1.071976 -0.08404,0.431456 0.217041,0.570476 1.317045,0.608127 1.157712,0.03963 2.196156,-0.09244 2.858317,-0.363502 0.290117,-0.118764 0.671117,-0.218323 0.846667,-0.221243 0.298233,-0.005 0.349746,-0.04751 0.784849,-0.648287 1.048767,-1.448103 2.902421,-3.036604 4.813197,-4.124701 1.65255,-0.941049 2.576271,-1.10099 3.539537,-0.612866 0.574169,0.290953 1.246247,1.039179 1.429797,1.591794 0.420929,1.267299 -0.338323,2.843609 -1.939012,4.025651 -0.540947,0.399467 -0.871732,0.463118 -1.099397,0.211551 -0.318272,-0.351687 -0.11333,-0.890849 0.7964,-2.095171 0.833133,-1.10292 0.961024,-1.556404 0.533726,-1.892517 -0.323436,-0.254415 -0.698201,-0.218218 -1.357383,0.131106 -2.840851,1.505464 -5.196387,3.994642 -6.653151,7.030619 -0.568136,1.184028 -0.458246,1.771943 0.428652,2.293303 0.353977,0.208084 0.478585,0.233054 1.158634,0.232171 2.549275,-0.0033 6.2272,-1.718155 9.841561,-4.588666 1.137566,-0.903449 1.614893,-1.163817 2.014669,-1.098942 0.283699,0.04604 0.283699,0.04604 0.469359,-0.519349 0.440779,-1.342299 1.418092,-3.641096 2.148118,-5.05272 1.035649,-2.002594 2.60924,-4.824535 6.420902,-11.514667 3.53853,-6.2107542 3.64748,-6.3931992 4.82865,-8.0856662 1.32777,-1.90253609 1.92153,-2.45533309 2.63727,-2.45533309 0.40734,0 0.59143,0.106967 0.72055,0.418686 0.20213,0.48798899 -0.13064,1.39952009 -0.94441,2.58698009 -1.65793,2.419257 -2.19624,3.244458 -3.17575,4.868333 -3.62428,6.0084602 -8.002819,14.1934742 -9.533981,17.8223332 -1.144293,2.711979 -2.002923,5.070757 -2.131117,5.854478 -0.140493,0.858919 0.437119,0.479744 2.29675,-1.507707 2.938512,-3.140489 4.979818,-4.977029 6.327548,-5.692813 1.08175,-0.574529 2.23188,0.06538 2.3189,1.290199 0.0397,0.559288 -0.16657,1.251657 -1.31589,4.416176 -0.85215,2.3463 -1.10608,3.215617 -1.1765,4.027717 -0.0925,1.067049 0.27026,1.477905 1.30116,1.473547 0.90146,-0.0038 1.74664,-0.276691 2.84086,-0.917219 1.36708,-0.80025 2.96274,-2.149135 3.89407,-3.291831 0.25665,-0.314901 0.85328,-1.182147 1.32585,-1.927214 0.95899,-1.511996 1.38545,-1.989666 1.77635,-1.989666 0.52617,0 0.67225,0.669358 0.30635,1.403634 -0.28794,0.577814 -2.28589,2.941316 -3.36445,3.980012 -1.87949,1.810031 -3.89617,3.079318 -5.89169,3.708184 -0.76138,0.239944 -1.56165,0.283431 -2.00646,0.109032 z M 37.412144,32.302417 c 0.65368,-0.374893 1.493541,-1.203033 2.015273,-1.987147 0.516099,-0.775648 1.057146,-1.899377 1.057146,-2.19564 0,-0.137524 -0.276745,-0.459458 -0.942138,-1.095976 -0.518176,-0.49569 -0.971238,-0.901254 -1.006804,-0.901254 -0.08434,0 -1.182584,1.690988 -1.47165,2.265926 -0.714627,1.421356 -1.099047,3.594745 -0.717204,4.054838 0.155095,0.186879 0.595583,0.128686 1.065377,-0.140747 z m 3.453893,-6.03185 c 0.06041,-0.488314 -0.01686,-0.768395 -0.291974,-1.058333 -0.22209,-0.234054 -0.263828,-0.235207 -0.543748,-0.01502 -0.360658,0.283694 -0.304505,0.613959 0.188153,1.106617 0.226181,0.226181 0.45204,0.411238 0.501908,0.411238 0.04987,0 0.115416,-0.200025 0.145661,-0.4445 z"
     id="hoch"
     inkscape:label="hoch" /><path
     style="display:inline;fill:#ffffff;fill-opacity:1"
     d="m 16.438834,79.337606 c -1.42029,-0.241908 -1.75838,-2.364576 -0.77497,-4.865528 0.82481,-2.097592 2.65095,-4.932863 5.18055,-8.043333 0.49231,-0.605367 1.64897,-2.007632 2.57036,-3.116145 0.92138,-1.108513 1.75115,-2.16427 1.84392,-2.346127 0.20161,-0.395189 0.22953,-1.297874 0.0532,-1.719901 -0.15102,-0.361431 -0.57669,-0.713388 -0.94677,-0.782816 -0.1624,-0.03047 -0.4756,-0.01093 -0.69601,0.04342 -0.51051,0.125879 -1.87505,0.632186 -2.33181,0.865204 -0.54745,0.279289 -0.92544,0.251746 -1.28152,-0.09338 -0.38981,-0.377817 -0.5146,-0.747752 -0.36831,-1.091864 0.0645,-0.151771 0.77538,-0.849361 1.72892,-1.69665 1.78288,-1.584219 2.62095,-2.457296 3.56104,-3.709785 0.70674,-0.941601 1.62435,-2.684875 1.69462,-3.219424 0.0429,-0.326558 0.0204,-0.3841 -0.26098,-0.665438 -0.27885,-0.278851 -0.33791,-0.302489 -0.62467,-0.250008 -0.48526,0.08881 -1.77684,0.733701 -2.39102,1.193845 -0.30269,0.226768 -1.08474,0.953846 -1.73791,1.61573 -1.83261,1.857079 -2.01439,1.963066 -2.51254,1.46492 -0.22594,-0.225941 -0.25237,-0.300704 -0.21219,-0.600243 0.0261,-0.194512 0.22151,-0.632661 0.45287,-1.015383 1.07322,-1.775303 2.33144,-2.832701 4.07709,-3.426361 1.14085,-0.387979 2.15084,-0.513608 2.74366,-0.341272 1.12232,0.326267 1.56566,1.461577 1.21563,3.112991 -0.32371,1.527222 -1.62131,3.727169 -3.48957,5.916188 -0.77529,0.908397 -0.77529,0.908397 -0.22853,0.964414 1.16366,0.11922 2.03251,0.679311 2.47563,1.595874 0.19457,0.402455 0.19457,0.402455 0.43537,0.230992 0.13244,-0.0943 0.8992,-0.865959 1.70392,-1.714788 1.82863,-1.92886 2.47644,-2.572766 3.388999,-3.368568 0.84547,-0.737292 2.72059,-2.100239 3.04512,-2.213372 0.13026,-0.04541 0.35621,-0.276168 0.53693,-0.548355 0.8991,-1.354138 2.55389,-2.493793 4.51405,-3.108826 1.20954,-0.379513 1.94927,-0.253504 2.57299,0.438299 0.36569,0.405604 0.53644,0.897059 0.45763,1.317158 -0.0308,0.164447 -0.22033,0.522089 -0.42106,0.79476 -0.84626,1.149567 -2.28217,1.923657 -4.29289,2.31427 -1.26896,0.246513 -1.53966,0.396091 -1.865,1.030521 -0.21715,0.423432 -0.49072,1.593591 -0.43757,1.871615 0.0235,0.122785 0.18915,0.355582 0.36819,0.517327 1.04113,0.9406 3.58024,0.711131 6.09846,-0.551141 0.85478,-0.428461 2.25389,-1.378048 3.03938,-2.06284 0.88192,-0.768857 0.97109,-0.825624 1.37706,-0.876696 0.35861,-0.04511 0.35861,-0.04511 0.92376,-1.198189 0.31083,-0.634191 0.80116,-1.514023 1.08962,-1.955181 0.89853,-1.374164 2.23711,-2.971471 2.6247,-3.132018 0.34035,-0.140975 0.72079,-0.03018 1.05953,0.308559 0.43086,0.43086 0.40497,0.767216 -0.12109,1.573054 -0.78262,1.198864 -2.19436,3.584089 -2.74584,4.639298 -0.52288,1.000458 -1.49949,3.12788 -1.61985,3.528618 -0.0867,0.28859 0.15823,0.75595 0.51695,0.986495 0.45829,0.294542 0.83977,0.336971 1.60747,0.178787 2.21634,-0.456673 4.03243,-1.403777 6.07881,-3.170131 1.08152,-0.933535 2.06973,-1.689796 2.47618,-1.89498 0.30522,-0.154083 0.6664,-0.179352 0.74504,-0.05212 0.0288,0.04657 0.0832,0.08467 0.12087,0.08467 0.0377,0 0.28836,-0.542925 0.55702,-1.2065 0.99891,-2.467337 1.53124,-3.648861 2.92952,-6.502168 1.35961,-2.774399 1.42854,-2.938963 1.33888,-3.196167 -0.0945,-0.271165 -0.0945,-0.271165 -3.07074,-0.284628 -6.18397,-0.02798 -11.9362,0.111039 -12.96689,0.313372 -1.47987,0.290513 -1.78458,0.251858 -2.02606,-0.257015 -0.1746,-0.367949 -0.16774,-0.493154 0.0372,-0.678609 0.12333,-0.111615 0.32709,-0.159033 0.74083,-0.172402 0.31389,-0.01014 1.27556,-0.0663 2.13704,-0.124801 1.0331,-0.07015 3.91546,-0.109603 8.46667,-0.115887 6.838,-0.0094 6.90377,-0.01115 7.28133,-0.188527 0.51673,-0.242767 0.67507,-0.435079 1.26946,-1.541815 0.9194,-1.711896 1.79054,-2.96102 3.25793,-4.671519 0.92256,-1.075408 0.94534,-1.094593 1.30341,-1.097974 0.22029,-0.0021 0.35987,0.07205 0.61383,0.326013 0.55581,0.555812 0.51114,0.686078 -0.91029,2.654742 -1.24425,1.723253 -2.0363,2.911828 -2.47394,3.712442 -0.19309,0.353222 -0.35106,0.661891 -0.35106,0.68593 0,0.02404 1.30492,0.06706 2.89983,0.09561 2.99215,0.05356 4.02704,0.114175 6.8164,0.399252 0.89681,0.09166 1.69032,0.166647 1.76334,0.166647 0.073,0 0.24415,0.11137 0.38027,0.247488 0.45648,0.456483 0.25445,1.022512 -0.36496,1.022512 -0.16653,0 -0.79218,-0.05648 -1.39033,-0.125504 -1.74925,-0.201864 -4.17119,-0.29649 -7.47989,-0.292241 -2.16375,0.0028 -3.17868,0.03427 -3.385,0.105024 -0.3616,0.124013 -0.37653,0.150206 -2.61516,4.588388 -2.99782,5.943302 -4.54006,9.614737 -5.72272,13.623416 -0.92982,3.151688 -1.30921,5.352237 -1.37582,7.980137 -0.0476,1.87622 -0.0476,1.87622 0.1698,2.093576 0.12753,0.127526 0.36046,0.24024 0.56362,0.272726 0.63993,0.10233 0.97123,0.777433 0.60374,1.230264 -0.14133,0.174146 -0.23199,0.198925 -0.70412,0.192461 -1.01129,-0.01385 -1.73886,-0.607054 -2.05666,-1.676839 -0.28263,-0.951378 -0.24297,-2.401216 0.1392,-5.089075 0.42634,-2.998586 1.40491,-6.574766 2.77916,-10.156451 0.23152,-0.603415 0.413,-1.104548 0.40329,-1.113629 -0.01,-0.0091 -0.51296,0.383828 -1.11833,0.87313 -2.80596,2.267987 -5.58948,3.722713 -8.07696,4.221195 -1.29083,0.258678 -2.17777,-0.005 -2.99828,-0.891209 -0.80261,-0.866917 -0.93609,-1.762612 -0.48751,-3.271437 0.13654,-0.459247 0.23511,-0.848127 0.21906,-0.864179 -0.016,-0.01605 -0.38494,0.248751 -0.81975,0.588451 -2.46806,1.928203 -4.36556,2.894725 -6.36885,3.244069 -0.88317,0.154011 -2.14507,0.170266 -2.77837,0.03579 -1.01698,-0.21595 -1.95023,-0.900281 -2.35253,-1.725061 -0.17364,-0.35598 -0.20699,-0.551305 -0.20965,-1.227667 -0.002,-0.442383 0.0254,-0.932714 0.0602,-1.089623 0.0634,-0.285291 0.0634,-0.285291 -0.33867,0.03764 -1.92532,1.546329 -6.644689,6.192595 -6.967639,6.859711 -0.0953,0.196896 -0.23036,0.656632 -0.3001,1.021635 -0.71514,3.743002 -1.42418,6.112572 -2.61996,8.755865 -1.54437,3.413841 -4.43307,7.40875 -5.88712,8.141565 -0.54329,0.27381 -1.10214,0.388976 -1.53213,0.315739 z m 0.605,-1.829215 c 0.14599,-0.122845 0.65665,-0.691852 1.1348,-1.26446 2.47397,-2.962685 4.46789,-6.661019 5.97496,-11.082418 0.23492,-0.689178 0.42712,-1.287504 0.42712,-1.329614 0,-0.17578 -2.78975,2.881134 -3.95387,4.332512 -1.50434,1.875561 -2.98931,4.229961 -3.62525,5.747788 -0.36297,0.866334 -0.67041,1.907427 -0.81187,2.74932 -0.0947,0.563558 -0.0907,0.653766 0.0382,0.850332 0.18663,0.284831 0.47479,0.283609 0.81596,-0.0035 z M 39.693713,51.19141 c 0.52339,-0.25471 1.37243,-0.944459 1.27836,-1.038527 -0.12483,-0.124829 -2.33669,1.191752 -2.33669,1.390884 0,0.08893 0.47978,-0.0708 1.05833,-0.352357 z m 13.29267,-5.290439 c -0.60992,-0.25228 -0.91938,-1.326317 -0.55455,-1.924655 0.19349,-0.317326 0.353,-0.413506 0.88263,-0.5322 0.78253,-0.175369 1.4317,0.162069 1.70908,0.888377 0.25675,0.672279 -0.12475,1.352321 -0.87563,1.56086 -0.37055,0.102912 -0.9224,0.106532 -1.16153,0.0076 z"
     id="zeit"
     inkscape:label="zeit" /></svg>
